# xmcd
#
# Track frame offsets:
#	150
#	8823
#	19051
#	31877
#	40853
#	50251
#	63342
#	81758
#	91571
#	103919
#	114359
#	124460
#	135842
#	144889
#	156951
#	165271
#	174814
#	186422
#	197689
#	207706
#	218046
#	231170
#	244271
#	256727
#	265702
#	276867
#	290459
#
# Disc length: 3983 seconds
#
# Revision: 1
# Processed by: cddbd v1.5.2PL0 Copyright (c) Steve Scherf et al.
# Submitted via: EasyCDDAExtractor 10.0.2.1
#
DISCID=6d0f8d1b
DTITLE=Johnny Cash - The Man In Black - 1959-62 - CD3
DYEAR=1991
DGENRE=Country
TTITLE0=Tall Man
TTITLE1=Girl In Saskatoon
TTITLE2=Locomotive Man
TTITLE3=The Losing Kind
TTITLE4=Five Minutes To Live (1)
TTITLE5=Forty Shades Of Green (1)
TTITLE6=The Big Battle
TTITLE7=Blues For Two
TTITLE8=Jeri And Nina's Melody
TTITLE9=Why Do You Punish Me?
TTITLE10=Just One More
TTITLE11=Seasons Of My Heart
TTITLE12=Honky Tonk Girl
TTITLE13=I'm So Lonesome I Could Cry
TTITLE14=Time Changes Everything
TTITLE15=I'd Just Be Fool Enough
TTITLE16=Transfusion Blues
TTITLE17=Lovin' Locomotive Man
TTITLE18=Five Minutes To Live (2)
TTITLE19=Mr. Lonesome
TTITLE20=Forty Shades Of Green (2)
TTITLE21=Folsom Prison Blues
TTITLE22=I Walk The Line
TTITLE23=Hey Porter
TTITLE24=I Forgot More Than You'll Ever Know About Her
TTITLE25=There's A Mother Always Waiting
TTITLE26=The Losing Kind
EXTD=YEAR: 1991 ID3G: 2
EXTT0=
EXTT1=
EXTT2=
EXTT3=
EXTT4=
EXTT5=
EXTT6=
EXTT7=
EXTT8=
EXTT9=
EXTT10=
EXTT11=
EXTT12=
EXTT13=
EXTT14=
EXTT15=
EXTT16=
EXTT17=
EXTT18=
EXTT19=
EXTT20=
EXTT21=
EXTT22=
EXTT23=
EXTT24=
EXTT25=
EXTT26=
PLAYORDER=
